<svg xmlns="http://www.w3.org/2000/svg" version="1.1" xmlns:xlink="http://www.w3.org/1999/xlink" xmlns:svgjs="http://svgjs.dev/svgjs" viewBox="0 0 14.114146088410571 3.740749359894945"><g transform="matrix(0.715432114844444,0,0,0.715432114844444,4.438392856047045,1.486187634276006)"><g transform="matrix(1,0,0,1,0,0)" clip-path="url(#SvgjsClipPath8112)"><g clip-path="url(#SvgjsClipPath81109f4ad4ff-a1ff-424b-9b4d-7dce6feeed18)"><path d=" M -0.9752066396744794 1.5191576473158472 C -0.9324211204009665 1.4957878034199885 -0.8913093659828333 1.469476280592381 -0.8521677862681825 1.4404127811358112 L -0.9426013435218035 1.2989180997185565 L -0.9426013435218035 1.2989180997185565 L -0.9542900345953889 1.2829230487757366 L -0.9850497479469791 1.23616828448134 L -0.9952004533530017 1.2204808306720365 L -0.9807433880777494 1.2087921395984367 C -0.839149679561471 1.093341659038644 -0.7375458576484291 0.936200154808716 -0.6903716940388427 0.7597003246654153 C -0.6433415235584619 0.5838069075927363 -0.6531390624624349 0.3975460031547645 -0.7183630331888045 0.22755728368313555 C -0.7464947257105203 0.15381711652438956 -0.7845795534266595 0.08427090939055082 -0.8315587783226017 0.02085200996054004 C -0.8734153806951324 -0.03621449459350712 -0.9221822440868863 -0.08787430750850345 -0.9767446253420424 -0.1329465567973449 L -1.0539515058544897 0.01623805295780345 C -1.0154287179408457 0.05110879233848786 -0.9809647702837272 0.09021608623683963 -0.9512140632602246 0.13281736656028142 C -0.9181133357602613 0.18056540797737486 -0.8910444328565583 0.23222361962566795 -0.8706236142791033 0.28661593331816393 C -0.8060219271761069 0.4549487811492514 -0.8088868672717697 0.6417208373857561 -0.8786211397504917 0.8079930746273909 C -0.9447771108319594 0.9669386274399077 -1.0670634986524632 1.0960126213883161 -1.2222071378876165 1.1706500950424814 L -1.1237760551625813 1.3244486618003646 L -1.093016341810991 1.3715110232282768 L -1.08040485933685 1.39088964263977 L -1.101321464415915 1.4013479451793058 C -1.1148557382905988 1.407807484983137 -1.1283900121653083 1.4142670247869689 -1.1416166889064694 1.4201113703237682 C -1.1548433656476305 1.4259557158605671 -1.1696080280564056 1.431800061397367 -1.1828347047975922 1.4370292126671347 C -1.421373462600156 1.528376673770777 -1.6864710338496267 1.5209605830510629 -1.9195298395678502 1.4164202047215781 C -2.152940735662779 1.3126028225379167 -2.3352896642432315 1.11995732421978 -2.426142318468316 0.8812011924041423 C -2.435062635340273 0.85813140739046 -2.442752563678164 0.8347540252432613 -2.4498272977490356 0.8110690459625469 C -2.4553640461523054 0.7932284122186324 -2.459978003155058 0.7750801813412016 -2.464284363024275 0.7569319504637724 L -2.6297716208557604 0.7646218788016659 C -2.6245424695860007 0.7901524408834739 -2.618390526915685 0.8156830029652835 -2.611008195711317 0.841521162180608 C -2.601780281705824 0.8741264583332791 -2.591014382032782 0.906731754485951 -2.5787104966921506 0.9393370506386223 C -2.472264937245815 1.2185016079534616 -2.259106827242242 1.4438338571576674 -1.986278417540765 1.5656048144767267 C -1.7137548981227173 1.6876942534025419 -1.4038279275968728 1.696217245092002 -1.125006443696647 1.5892897937574417 C -1.073686431871401 1.5695795953813925 -1.0238325660417178 1.546245930343585 -0.9758218339414739 1.5194652444493622 Z M -1.5396473796759036 -0.5891131058012271 C -1.4142596482628564 -0.5906873981647163 -1.2894940703743245 -0.5712447622770878 -1.1705308194569868 -0.5315924418337792 L -1.2465073114353813 -0.3845610120132401 C -1.3450556949323382 -0.41447776990211066 -1.4477647745422304 -0.4283938636005179 -1.550720876482469 -0.42577902790435407 C -1.6595669653554916 -0.4228590230464513 -1.7671217470162253 -0.4014312812455667 -1.868776312537776 -0.36241401840010545 C -2.040756349342556 -0.29721591656636337 -2.1902787761600506 -0.18379247565194184 -2.299412299459848 -0.03574586260636026 C -2.409659637271738 0.11244396213382968 -2.475194646563095 0.2890896305005999 -2.4882769394385424 0.47332739336223484 L -2.4882769394385424 0.4967047755094336 L -2.4648995572913335 0.4967047755094336 L -2.409224476124984 0.49424399844130784 L -2.3895382595799717 0.49424399844130784 L -2.3895382595799717 0.49424399844130784 L -2.226819375950128 0.48686166723692903 C -2.230395258321768 0.5341401577116036 -2.2290551600206316 0.5816621051596857 -2.2228206132144464 0.6286639457876979 C -2.2158466671023938 0.6839335765553376 -2.2022133928868004 0.738156826276475 -2.182217791590369 0.7901524408834733 C -2.1173039407965555 0.960533811031935 -1.9885344108151886 1.0989031260247628 -1.8232519367774491 1.17587924631225 C -1.6632015210518585 1.2509327635731209 -1.4806904324861752 1.2626899498925244 -1.3123330980077788 1.208792139598436 L -1.221899540754132 1.350286821015689 C -1.4351379817415493 1.430330010031444 -1.6713420432639428 1.4230349852020197 -1.8792346150773214 1.329985410203649 C -2.0889207014059092 1.236389758732698 -2.252725969290306 1.0631767558684744 -2.334478372680668 0.8485958962514719 L -2.334478372680668 0.8485958962514719 C -2.3449366752202003 0.8206045571015366 -2.35416458922568 0.7923056208180865 -2.3618545175635712 0.7636990874011198 C -2.369657380724937 0.7351417179535982 -2.3759208761905035 0.7061858864570341 -2.3806179427080276 0.6769566957496742 L -2.383693914043179 0.6585008677387276 L -2.4021497420541253 0.6585008677387276 L -2.457517226086965 0.6609616448068534 L -2.5048871846484033 0.6631148247414642 L -2.645151477531581 0.6677287817442008 C -2.6737782474438716 0.4216832921879965 -2.6205939012246677 0.17305728343969884 -2.493813687841825 -0.03974462534206569 C -2.3646260419405314 -0.25768989738177817 -2.16530393011498 -0.4253460371436293 -1.928450156439807 -0.5152897937574428 C -1.804346556633513 -0.5631643029036706 -1.6726580769604413 -0.5883768124613327 -1.5396473796758907 -0.5897283000682583 Z M -0.7195934217228701 -0.24891067613278683 C -0.6121177619489497 -0.13917337752302644 -0.5283570667889146 -0.008506693073393135 -0.4735157149102758 0.13497054649489226 C -0.39009498522888864 0.3519756408196484 -0.37633355967105553 0.5895752539665426 -0.434143281820226 0.8147602115647399 C -0.48971407390206867 1.0327729009044218 -0.6091433955338879 1.2292153904764016 -0.777114085690318 1.378893354432658 L -0.8663172544098992 1.2392442558164993 C -0.7291745549479443 1.110119824337004 -0.6329216552683512 0.9436023078913254 -0.5894798342457146 0.7603155189324473 C -0.5442511493418158 0.571956902198179 -0.5571197038929618 0.3743173518834183 -0.6263914902676078 0.19341400186288948 C -0.6619097677189256 0.10081549273935686 -0.711390525292835 0.014198233673936134 -0.7731153229546239 -0.06342960462277836 C -0.8349137302123171 -0.1408428111789961 -0.9082635110716055 -0.20827896048386846 -0.9905864963502746 -0.26336774140802716 L -1.009965115761764 -0.27628682101569013 L -1.0210386125683293 -0.25506261880310316 L -1.0465691746501469 -0.20584707744058 L -1.1305431920999554 -0.043435790944255426 C -1.2211481722128588 -0.10490331442862222 -1.3247373088249856 -0.1445914287607053 -1.4332187714794802 -0.15939991027970057 C -1.5494157967604867 -0.1749606920634454 -1.6676600478294334 -0.16110559645518757 -1.7771123667500766 -0.11910468578913347 C -1.888604707824242 -0.0767185701265869 -1.987399612132912 -0.006513831051936481 -2.064100492320309 0.08483221373181904 C -2.137431557131415 0.1721097598163872 -2.1885155597881703 0.27586094703043096 -2.2129775049419336 0.3872001959778195 L -2.3806179427080276 0.3948901243157147 C -2.356234760938942 0.24983034050442776 -2.295490650078157 0.11331483003334375 -2.204057188069977 -0.0019101779196234459 C -2.107527472825338 -0.12332855317933261 -1.9799989211969362 -0.21642439586806111 -1.8349406278510345 -0.2713652668794403 C -1.736792323543959 -0.30920128328544216 -1.6325319844152804 -0.3286979667025051 -1.5273434943352855 -0.32888593084688905 C -1.422178021692792 -0.3287544140808248 -1.3179258358879842 -0.3093635075211282 -1.2197463608195236 -0.27167286401295515 L -1.20221332420912 -0.2649057270756092 L -1.193600604470673 -0.2815159722854596 L -1.1680700423888555 -0.33103911078149917 L -1.1523825885795502 -0.3617988241330766 L -1.1523825885795502 -0.3617988241330766 L -1.0822504421379486 -0.4971415628800143 C -0.9463626906148064 -0.4387867391242698 -0.8231732795466185 -0.35446625165009665 -0.7195934217228701 -0.24891067613278922 Z" fill="#fffef5" transform="matrix(1,0,0,1,0,0)" fill-rule="evenodd"></path></g></g><g><path d=" M 0.8805000000000001 0.016499999999999737 L 0.8805000000000001 0.25049999999999983 L 0.5985 0.25049999999999983 L 0.5985 1.0739999999999998 L 0.3045 1.0739999999999998 L 0.3045 0.25049999999999983 L 0.025500000000000002 0.25049999999999983 L 0.025500000000000002 0.016499999999999737 L 0.8805000000000001 0.016499999999999737 M 1.9335058593749999 0.016499999999999737 L 1.9335058593749999 1.0739999999999998 L 1.639505859375 1.0739999999999998 L 1.639505859375 0.6494999999999999 L 1.281005859375 0.6494999999999999 L 1.281005859375 1.0739999999999998 L 0.987005859375 1.0739999999999998 L 0.987005859375 0.016499999999999737 L 1.281005859375 0.016499999999999737 L 1.281005859375 0.4139999999999998 L 1.639505859375 0.4139999999999998 L 1.639505859375 0.016499999999999737 L 1.9335058593749999 0.016499999999999737 M 2.392477294921875 0.2519999999999998 L 2.392477294921875 0.4244999999999999 L 2.729977294921875 0.4244999999999999 L 2.729977294921875 0.6479999999999999 L 2.392477294921875 0.6479999999999999 L 2.392477294921875 0.8384999999999998 L 2.7749772949218747 0.8384999999999998 L 2.7749772949218747 1.0739999999999998 L 2.098477294921875 1.0739999999999998 L 2.098477294921875 0.016499999999999737 L 2.7749772949218747 0.016499999999999737 L 2.7749772949218747 0.2519999999999998 L 2.392477294921875 0.2519999999999998 M 3.542937744140625 1.0739999999999998 L 3.2114377441406248 0.6104999999999998 L 3.2114377441406248 1.0739999999999998 L 2.9174377441406247 1.0739999999999998 L 2.9174377441406247 0.016499999999999737 L 3.2114377441406248 0.016499999999999737 L 3.2114377441406248 0.4724999999999998 L 3.539937744140625 0.016499999999999737 L 3.8789377441406248 0.016499999999999737 L 3.4904377441406247 0.5294999999999999 L 3.8984377441406246 1.0739999999999998 L 3.542937744140625 1.0739999999999998 M 4.291457519531249 0.016499999999999737 L 4.291457519531249 0.6299999999999999 Q 4.291457519531249 0.7154999999999998 4.331207519531249 0.7619999999999998 Q 4.37095751953125 0.8084999999999998 4.451957519531249 0.8084999999999998 Q 4.53295751953125 0.8084999999999998 4.5742075195312495 0.7612499999999998 Q 4.615457519531249 0.7139999999999999 4.615457519531249 0.6299999999999999 L 4.615457519531249 0.016499999999999737 L 4.90945751953125 0.016499999999999737 L 4.90945751953125 0.6299999999999999 Q 4.90945751953125 0.7754999999999999 4.847957519531249 0.8782499999999999 Q 4.7864575195312495 0.9809999999999999 4.68070751953125 1.0327499999999998 Q 4.5749575195312495 1.0844999999999998 4.44595751953125 1.0844999999999998 Q 4.3169575195312495 1.0844999999999998 4.215707519531249 1.0327499999999998 Q 4.11445751953125 0.9809999999999999 4.056707519531249 0.8789999999999998 Q 3.9989575195312494 0.7769999999999999 3.9989575195312494 0.6299999999999999 L 3.9989575195312494 0.016499999999999737 L 4.291457519531249 0.016499999999999737 M 5.778670166015624 0.08324999999999982 Q 5.903920166015625 0.1499999999999998 5.9714201660156245 0.2699999999999998 Q 6.038920166015624 0.3899999999999998 6.038920166015624 0.5444999999999999 Q 6.038920166015624 0.6974999999999998 5.9706701660156245 0.8174999999999999 Q 5.902420166015625 0.9374999999999998 5.777170166015624 1.00575 Q 5.651920166015625 1.0739999999999998 5.486920166015625 1.0739999999999998 L 5.068420166015624 1.0739999999999998 L 5.068420166015624 0.016499999999999737 L 5.486920166015625 0.016499999999999737 Q 5.653420166015625 0.016499999999999737 5.778670166015624 0.08324999999999982 M 5.6669201660156245 0.7439999999999998 Q 5.740420166015625 0.6734999999999998 5.740420166015625 0.5444999999999999 Q 5.740420166015625 0.4139999999999998 5.6669201660156245 0.3427499999999998 Q 5.593420166015624 0.27149999999999985 5.464420166015625 0.27149999999999985 L 5.3624201660156245 0.27149999999999985 L 5.3624201660156245 0.8144999999999998 L 5.464420166015625 0.8144999999999998 Q 5.593420166015624 0.8144999999999998 5.6669201660156245 0.7439999999999998 M 6.401898193359374 1.0147499999999998 Q 6.2773981933593745 0.9449999999999998 6.2046481933593745 0.8212499999999998 Q 6.131898193359374 0.6974999999999998 6.131898193359374 0.5414999999999999 Q 6.131898193359374 0.38549999999999984 6.2046481933593745 0.2617499999999998 Q 6.2773981933593745 0.1379999999999998 6.401898193359374 0.06899999999999973 Q 6.526398193359374 -2.220446049250313e-16 6.6748981933593745 -2.220446049250313e-16 Q 6.824898193359374 -2.220446049250313e-16 6.948648193359374 0.06899999999999973 Q 7.0723981933593745 0.1379999999999998 7.1443981933593745 0.2617499999999998 Q 7.216398193359375 0.38549999999999984 7.216398193359375 0.5414999999999999 Q 7.216398193359375 0.6974999999999998 7.1443981933593745 0.8212499999999998 Q 7.0723981933593745 0.9449999999999998 6.947898193359374 1.0147499999999998 Q 6.823398193359374 1.0844999999999998 6.6748981933593745 1.0844999999999998 Q 6.526398193359374 1.0844999999999998 6.401898193359374 1.0147499999999998 M 6.852648193359374 0.7379999999999998 Q 6.917898193359374 0.6644999999999999 6.917898193359374 0.5414999999999999 Q 6.917898193359374 0.41549999999999987 6.852648193359374 0.3427499999999998 Q 6.787398193359374 0.2699999999999998 6.6748981933593745 0.2699999999999998 Q 6.560898193359375 0.2699999999999998 6.496398193359374 0.3427499999999998 Q 6.431898193359374 0.41549999999999987 6.431898193359374 0.5414999999999999 Q 6.431898193359374 0.6659999999999998 6.496398193359374 0.7387499999999998 Q 6.560898193359375 0.8114999999999999 6.6748981933593745 0.8114999999999999 Q 6.787398193359374 0.8114999999999999 6.852648193359374 0.7379999999999998 M 7.441379150390624 0.9967499999999998 Q 7.322879150390624 0.9089999999999998 7.313879150390624 0.7454999999999998 L 7.627379150390624 0.7454999999999998 Q 7.631879150390624 0.8009999999999998 7.660379150390624 0.8264999999999998 Q 7.688879150390624 0.8519999999999999 7.733879150390624 0.8519999999999999 Q 7.774379150390624 0.8519999999999999 7.800629150390624 0.8317499999999999 Q 7.826879150390624 0.8114999999999999 7.826879150390624 0.7754999999999999 Q 7.826879150390624 0.7289999999999999 7.7833791503906244 0.7034999999999998 Q 7.739879150390625 0.6779999999999998 7.642379150390624 0.6464999999999999 Q 7.538879150390624 0.6119999999999999 7.475129150390624 0.5797499999999998 Q 7.411379150390625 0.5474999999999999 7.3641291503906245 0.48524999999999985 Q 7.3168791503906245 0.4229999999999998 7.3168791503906245 0.3224999999999998 Q 7.3168791503906245 0.2204999999999998 7.367879150390624 0.14774999999999983 Q 7.418879150390624 0.07499999999999984 7.508879150390624 0.03749999999999987 Q 7.598879150390625 -2.220446049250313e-16 7.712879150390624 -2.220446049250313e-16 Q 7.897379150390624 -2.220446049250313e-16 8.007629150390624 0.08624999999999983 Q 8.117879150390625 0.17249999999999988 8.125379150390625 0.3284999999999998 L 7.805879150390624 0.3284999999999998 Q 7.804379150390624 0.28049999999999986 7.776629150390624 0.25649999999999984 Q 7.748879150390624 0.23249999999999982 7.705379150390624 0.23249999999999982 Q 7.672379150390624 0.23249999999999982 7.651379150390624 0.2519999999999998 Q 7.630379150390624 0.27149999999999985 7.630379150390624 0.3074999999999998 Q 7.630379150390624 0.3374999999999998 7.653629150390624 0.35924999999999985 Q 7.676879150390624 0.3809999999999998 7.711379150390624 0.3967499999999998 Q 7.745879150390624 0.41249999999999987 7.813379150390624 0.4364999999999998 Q 7.913879150390624 0.47099999999999986 7.979129150390624 0.5047499999999998 Q 8.044379150390624 0.5384999999999999 8.091629150390624 0.5992499999999998 Q 8.138879150390624 0.6599999999999998 8.138879150390624 0.7529999999999999 Q 8.138879150390624 0.8474999999999998 8.091629150390624 0.9224999999999999 Q 8.044379150390624 0.9974999999999998 7.955129150390624 1.041 Q 7.865879150390624 1.0844999999999998 7.744379150390624 1.0844999999999998 Q 7.559879150390624 1.0844999999999998 7.441379150390624 0.9967499999999998 M 8.566371826171874 0.8489999999999999 L 8.894871826171874 0.8489999999999999 L 8.894871826171874 1.0739999999999998 L 8.272371826171874 1.0739999999999998 L 8.272371826171874 0.016499999999999737 L 8.566371826171874 0.016499999999999737 L 8.566371826171874 0.8489999999999999 M 9.96741357421875 0.016499999999999737 L 9.59541357421875 0.7379999999999998 L 9.59541357421875 1.0739999999999998 L 9.299913574218749 1.0739999999999998 L 9.299913574218749 0.7379999999999998 L 8.92791357421875 0.016499999999999737 L 9.26391357421875 0.016499999999999737 L 9.44991357421875 0.4244999999999999 L 9.63591357421875 0.016499999999999737 L 9.96741357421875 0.016499999999999737" fill="#fffef5" fill-rule="nonzero"></path></g><g></g></g><defs><clipPath id="SvgjsClipPath8112"><path d=" M -2.652841405869485 -0.5894207029347427 h 2.2528414058694852 v 2.2528414058694852 h -2.2528414058694852 Z"></path></clipPath><clipPath id="SvgjsClipPath81109f4ad4ff-a1ff-424b-9b4d-7dce6feeed18"><path d=" M -2.652841405869485 -0.5894207029347427 L -0.3999999999999999 -0.5894207029347427 L -0.3999999999999999 1.6634207029347425 L -2.652841405869485 1.6634207029347425 Z"></path></clipPath></defs></svg>